<svg width="1117" height="632" viewBox="0 0 1117 632" fill="none" xmlns="http://www.w3.org/2000/svg">
<circle cx="1062.5" cy="321.5" r="49.4583" fill="url(#paint0_linear)" stroke="black"/>
<path fill-rule="evenodd" clip-rule="evenodd" d="M1084.04 324.784H1042.12V315.561H1084.04V324.784Z" fill="white"/>
<path fill-rule="evenodd" clip-rule="evenodd" d="M1058.47 353.292L1058.47 311.369L1067.69 311.369L1067.69 353.292L1058.47 353.292Z" fill="white"/>
<path fill-rule="evenodd" clip-rule="evenodd" d="M1039.79 298.792L1063.08 322.082L1086.37 298.792H1073.33L1063.08 309.039L1052.83 298.792H1039.79Z" fill="white"/>
<circle cx="1062.5" cy="576.5" r="49.9583" fill="url(#paint1_linear)"/>
<path fill-rule="evenodd" clip-rule="evenodd" d="M1053.01 599.242C1055.76 602.247 1059.76 603.75 1065.01 603.75C1070.07 603.75 1073.94 602.314 1076.63 599.442C1078.69 597.195 1079.96 594.09 1080.44 590.125H1069.35C1069.14 590.701 1068.88 591.202 1068.56 591.628C1067.73 592.763 1066.52 593.331 1064.91 593.331C1063.31 593.331 1062.1 592.663 1061.27 591.327C1060.43 589.925 1060.02 587.721 1060.02 584.715V568.285C1060.02 565.279 1060.43 563.109 1061.27 561.773C1062.1 560.37 1063.35 559.669 1065.01 559.669C1066.55 559.669 1067.73 560.27 1068.56 561.472C1068.88 561.867 1069.13 562.335 1069.34 562.875H1080.47C1080 558.899 1078.73 555.793 1076.63 553.558C1073.94 550.686 1070.07 549.25 1065.01 549.25C1059.76 549.25 1055.76 550.753 1053.01 553.758C1050.25 556.764 1048.88 561.639 1048.88 568.385V584.615C1048.88 591.361 1050.25 596.236 1053.01 599.242Z" fill="white"/>
<rect x="1044.33" y="567.417" width="31.7917" height="6.8125" fill="white"/>
<rect x="1044.33" y="578.771" width="27.25" height="6.8125" fill="white"/>
<g clip-path="url(#clip0)">
<path d="M81.5394 25.9869L78.7937 28.7327C85.3455 35.8975 88.9788 45.2549 88.9788 54.9637C88.9788 64.6725 85.3455 74.0298 78.7937 81.1947L81.5394 83.9404C88.8257 76.0371 92.871 65.6812 92.871 54.9316C92.871 44.1821 88.8257 33.8262 81.5394 25.9229V25.9869Z" fill="#C4C4C4"/>
<path d="M23.7964 26.2248C30.9612 19.673 40.3186 16.0397 50.0274 16.0397C59.7362 16.0397 69.0935 19.673 76.2584 26.2248L79.0041 23.479C71.1008 16.1927 60.7449 12.1475 49.9954 12.1475C39.2458 12.1475 28.8899 16.1927 20.9866 23.479L23.7964 26.2248Z" fill="#C4C4C4"/>
<path d="M21.2245 81.2213C14.6805 74.0581 11.052 64.7064 11.052 55.004C11.052 45.3016 14.6805 35.95 21.2245 28.7868L18.4788 26.041C11.1925 33.9444 7.14722 44.3003 7.14722 55.0498C7.14722 65.7993 11.1925 76.1552 18.4788 84.0586L21.2245 81.2213Z" fill="#C4C4C4"/>
<path d="M76.2219 83.7573C69.0571 90.3091 59.6997 93.9424 49.9909 93.9424C40.2821 93.9424 30.9248 90.3091 23.7599 83.7573L21.0142 86.5031C28.9175 93.7894 39.2734 97.8346 50.0229 97.8346C60.7725 97.8346 71.1284 93.7894 79.0317 86.5031L76.2219 83.7573Z" fill="#C4C4C4"/>
<path d="M67.3348 45.8386C66.7856 40.1091 61.8433 38.1871 55.5921 37.6014V29.7119H50.7596V37.4549C49.4874 37.4549 48.1878 37.4549 46.8973 37.4549V29.7119H42.1014V37.6563H32.2991V42.8274C32.2991 42.8274 35.8685 42.7634 35.8136 42.8274C36.4572 42.7566 37.1032 42.9384 37.6154 43.3345C38.1276 43.7306 38.466 44.3101 38.5594 44.9508V66.6971C38.5456 66.923 38.4867 67.144 38.3861 67.3468C38.2855 67.5495 38.1452 67.7301 37.9736 67.8777C37.8052 68.0282 37.6082 68.1431 37.3943 68.2154C37.1803 68.2878 36.954 68.3161 36.7289 68.2988C36.7929 68.3537 33.2143 68.2988 33.2143 68.2988L32.2991 74.074H42.0099V82.1465H46.8424V74.193H50.7047V82.1099H55.5464V74.1289C63.7104 73.6347 69.4032 71.6211 70.1171 63.9788C70.6937 57.8283 67.8015 55.0826 63.1795 53.9751C65.9894 52.5931 67.7283 50.0304 67.3348 45.8386ZM60.5619 63.0269C60.5619 69.031 50.2745 68.3445 46.998 68.3445V57.691C50.2745 57.7002 60.5619 56.7575 60.5619 63.0269ZM58.3196 48.0169C58.3196 53.5084 49.7345 52.8402 47.0071 52.8402V43.1569C49.7345 43.1569 58.3196 42.2966 58.3196 48.0169Z" fill="#F09242"/>
<path d="M49.9909 105C40.1026 104.998 30.4369 102.064 22.2158 96.5697C13.9947 91.0749 7.58754 83.2659 3.80429 74.13C0.0210474 64.994 -0.968348 54.9415 0.961205 45.2433C2.89076 35.5451 7.65261 26.6368 14.6447 19.6447C21.6368 12.6526 30.5451 7.89076 40.2433 5.96121C49.9415 4.03165 59.994 5.02105 69.13 8.80429C78.2659 12.5875 86.0749 18.9947 91.5697 27.2158C97.0645 35.4369 99.9982 45.1026 100 54.9909C100.001 61.5585 98.7085 68.062 96.1958 74.13C93.683 80.1979 89.9994 85.7113 85.3554 90.3554C80.7113 94.9994 75.1979 98.683 69.13 101.196C63.062 103.709 56.5585 105.001 49.9909 105V105ZM49.9909 8.89898C40.8807 8.90622 31.9772 11.6141 24.4056 16.6803C16.8341 21.7465 10.9344 28.9437 7.45229 37.3621C3.97016 45.7805 3.06191 55.0423 4.84231 63.9768C6.62272 72.9113 11.0119 81.1174 17.455 87.558C23.8981 93.9985 32.106 98.3844 41.0412 100.161C49.9764 101.938 59.2378 101.026 67.6548 97.5408C76.0719 94.0553 83.2667 88.1527 88.3299 80.5792C93.3931 73.0056 96.0974 64.101 96.1011 54.9909C96.1035 48.9358 94.9123 42.9396 92.5957 37.3452C90.2791 31.7508 86.8824 26.6679 82.6 22.3871C78.3175 18.1064 73.2333 14.7118 67.6379 12.3974C62.0426 10.083 56.046 8.89417 49.9909 8.89898V8.89898Z" fill="white"/>
</g>
<circle cx="54.5001" cy="577.5" r="49.9583" fill="url(#paint2_linear)"/>
<path fill-rule="evenodd" clip-rule="evenodd" d="M34.7911 557.008H28.1714V561.538H34.7911V565.196H28.1714V569.725H34.7911V600.037H39.3204V569.725H45.9402V565.196H39.3204V561.538H45.9402V557.008H39.3204H34.7911ZM50.7047 557.182H72.4575L69.5012 565.241H72.4191V585.229H48.7274V580.7H67.8898V577.564H48.7274V573.035H67.8898V569.77H48.7274V565.241H64.6775L65.9719 561.712H53.9309L53.1331 564.02L48.8511 562.539L50.7047 557.182ZM53.2427 595.382H61.6184V587.494H66.1477V599.911H48.7134V587.551H53.2427V595.382ZM59.7023 587.494H55.173V592.372H59.7023V587.494ZM67.8898 587.494H72.4191V600.036H67.8898V587.494ZM32.7007 573.035H28.1714V600.037H32.7007V573.035ZM41.4108 573.035H45.9401V600.037H41.4108V573.035ZM86.9131 557.239H77.9822V562.184H80.8598V560.116H84.0355V561.625L77.9822 568.241V572.029H86.7641V569.152H81.0496L86.9131 562.743V557.239Z" fill="white"/>
<circle cx="1062.5" cy="54.4998" r="49.9583" fill="url(#paint3_linear)"/>
<path fill-rule="evenodd" clip-rule="evenodd" d="M1057.96 18.1665H1067.04V27.6807C1070.21 28.3018 1072.91 29.5941 1075.14 31.5577C1078.39 34.4297 1080.02 38.1699 1080.02 42.7783V43.7802H1067.87V43.1791C1067.87 41.1086 1067.36 39.539 1066.35 38.4704C1065.34 37.4018 1063.96 36.8675 1062.23 36.8675C1060.57 36.8675 1059.23 37.3016 1058.22 38.1699C1057.28 39.0381 1056.81 40.2737 1056.81 41.8767C1056.81 43.2792 1057.17 44.4481 1057.89 45.3831C1058.61 46.3182 1059.99 47.1864 1062.01 47.9879L1069.06 50.793C1073.18 52.4628 1076.15 54.4998 1077.96 56.9042C1079.76 59.2419 1080.67 62.3142 1080.67 66.1212C1080.67 70.7296 1079 74.5032 1075.68 77.4419C1073.38 79.4724 1070.5 80.7851 1067.04 81.38V90.8332H1057.96V81.4066C1054.45 80.8342 1051.54 79.5461 1049.21 77.5421C1045.96 74.6702 1044.33 70.7296 1044.33 65.7204V65.1193H1056.48V65.7204C1056.48 67.7241 1057.02 69.2936 1058.11 70.4291C1059.19 71.4977 1060.71 72.032 1062.66 72.032C1064.54 72.032 1065.95 71.5645 1066.89 70.6294C1067.9 69.6276 1068.41 68.1916 1068.41 66.3215C1068.41 64.9189 1067.94 63.7167 1067 62.7149C1066.13 61.6463 1064.72 60.7112 1062.77 59.9098L1056.26 57.305C1051.85 55.5685 1048.82 53.5314 1047.15 51.1938C1045.49 48.8561 1044.66 45.9174 1044.66 42.3776C1044.66 38.0363 1046.29 34.4297 1049.54 31.5577C1051.84 29.5273 1054.65 28.2146 1057.96 27.6197V18.1665Z" fill="white"/>
<path d="M613.905 426.134C539.576 472.09 450.688 462.3 415.338 404.246C379.988 346.192 411.596 261.917 485.925 215.961C560.254 170.005 649.143 179.795 684.493 237.849C719.843 295.903 688.234 380.177 613.905 426.134Z" fill="url(#paint4_linear)"/>
<path d="M712.57 324.881C712.725 323.249 712.866 321.617 712.95 320C712.964 319.789 712.964 319.564 712.978 319.353C713.063 317.721 713.119 316.089 713.133 314.457C713.133 314.359 713.133 314.274 713.133 314.176C713.147 312.516 713.105 310.87 713.049 309.238C713.049 309.07 713.049 308.901 713.034 308.732C713.034 308.577 713.02 308.437 713.006 308.282C712.978 307.522 712.922 306.777 712.88 306.017C712.852 305.637 712.837 305.258 712.809 304.878C712.725 303.837 712.641 302.81 712.528 301.783C712.514 301.685 712.514 301.586 712.5 301.502C712.373 300.376 712.233 299.265 712.078 298.14C712.022 297.788 711.965 297.436 711.909 297.085C711.797 296.325 711.67 295.565 711.543 294.806C711.515 294.665 711.501 294.539 711.473 294.398C711.403 294.018 711.318 293.638 711.248 293.259C711.164 292.78 711.065 292.316 710.981 291.852C710.868 291.317 710.756 290.783 710.629 290.248C710.531 289.784 710.432 289.32 710.32 288.856C710.193 288.321 710.052 287.787 709.926 287.252C709.813 286.802 709.701 286.338 709.574 285.887C709.433 285.353 709.279 284.804 709.124 284.27C708.997 283.834 708.871 283.384 708.744 282.948C708.716 282.863 708.702 282.779 708.674 282.708C708.632 282.582 708.589 282.455 708.547 282.343C708.083 280.823 707.577 279.318 707.042 277.827C707 277.701 706.958 277.574 706.915 277.461C706.367 275.942 705.762 274.451 705.129 272.96C705.059 272.805 705.016 272.651 704.946 272.496C704.904 272.383 704.848 272.271 704.791 272.158C704.2 270.794 703.567 269.443 702.92 268.093C702.794 267.84 702.667 267.587 702.541 267.333C701.879 266.011 701.19 264.703 700.473 263.409C700.431 263.338 700.402 263.268 700.36 263.198C700.346 263.17 700.332 263.141 700.318 263.113C699.798 262.185 699.249 261.256 698.686 260.328C698.672 260.314 698.672 260.3 698.658 260.286L684.465 237.863C685.027 238.792 685.59 239.734 686.125 240.691C686.181 240.775 686.223 240.874 686.265 240.958C686.997 242.252 687.672 243.574 688.347 244.883C688.474 245.136 688.6 245.389 688.727 245.642C689.388 246.993 690.007 248.343 690.612 249.708C690.724 249.975 690.837 250.228 690.95 250.495C691.583 251.986 692.187 253.492 692.736 255.011C692.778 255.137 692.82 255.25 692.863 255.376C693.397 256.868 693.904 258.373 694.368 259.892C694.424 260.089 694.494 260.3 694.565 260.497C694.705 260.947 694.818 261.397 694.944 261.833C695.099 262.368 695.254 262.902 695.395 263.437C695.521 263.887 695.634 264.351 695.746 264.801C695.887 265.336 696.014 265.87 696.14 266.405C696.253 266.869 696.351 267.333 696.45 267.798C696.562 268.332 696.689 268.867 696.801 269.401C696.9 269.865 696.984 270.344 697.069 270.808C697.167 271.328 697.266 271.835 697.35 272.355C697.477 273.115 697.603 273.888 697.716 274.648C697.772 275 697.828 275.351 697.884 275.703C698.039 276.814 698.18 277.94 698.306 279.065C698.321 279.149 698.321 279.234 698.335 279.318C698.447 280.359 698.546 281.4 698.616 282.455C698.644 282.835 698.658 283.215 698.686 283.595C698.743 284.354 698.785 285.114 698.813 285.873C698.827 286.183 698.841 286.506 698.841 286.83C698.897 288.476 698.939 290.122 698.925 291.782C698.925 291.88 698.925 291.964 698.925 292.063C698.911 293.695 698.855 295.326 698.771 296.958C698.757 297.169 698.757 297.394 698.743 297.605C698.644 299.223 698.517 300.855 698.363 302.486C698.335 302.796 698.306 303.091 698.264 303.401C698.095 305.018 697.899 306.636 697.659 308.254C697.617 308.521 697.575 308.788 697.533 309.056C697.28 310.758 696.984 312.46 696.661 314.162C696.647 314.246 696.633 314.317 696.618 314.401C696.295 316.089 695.915 317.777 695.521 319.451C695.465 319.662 695.423 319.887 695.366 320.098C694.973 321.758 694.522 323.418 694.058 325.064C693.974 325.359 693.889 325.669 693.805 325.964C693.327 327.596 692.834 329.227 692.3 330.859C692.201 331.141 692.117 331.422 692.019 331.703C691.456 333.377 690.865 335.065 690.232 336.739C690.19 336.866 690.134 336.992 690.091 337.119C689.458 338.765 688.797 340.411 688.108 342.056C688.024 342.239 687.953 342.422 687.883 342.605C687.18 344.251 686.448 345.883 685.688 347.514C685.548 347.81 685.421 348.091 685.281 348.386C684.521 349.99 683.733 351.58 682.917 353.169C682.777 353.451 682.622 353.732 682.481 354.013C681.637 355.631 680.765 357.249 679.851 358.852C679.766 359.007 679.668 359.162 679.569 359.33C678.655 360.92 677.727 362.51 676.756 364.085C676.672 364.226 676.573 364.38 676.489 364.521C675.504 366.111 674.477 367.686 673.436 369.262C673.253 369.529 673.085 369.796 672.902 370.078C671.875 371.611 670.82 373.13 669.723 374.635C669.455 375.001 669.188 375.367 668.921 375.732C668.428 376.408 667.936 377.069 667.43 377.744C667.12 378.166 666.797 378.588 666.473 378.996C665.953 379.671 665.418 380.346 664.898 381.022C664.588 381.415 664.279 381.809 663.969 382.189C663.35 382.949 662.731 383.722 662.098 384.482C661.859 384.763 661.634 385.059 661.395 385.34C660.523 386.381 659.637 387.422 658.736 388.449C658.666 388.519 658.61 388.59 658.539 388.674C656.964 390.46 655.346 392.233 653.686 393.977C653.672 393.991 653.672 393.991 653.658 394.005C651.984 395.764 650.282 397.494 648.524 399.196C648.482 399.238 648.439 399.28 648.383 399.337C646.92 400.757 645.415 402.164 643.896 403.557C643.657 403.768 643.432 403.979 643.193 404.204C641.716 405.526 640.224 406.848 638.705 408.142C638.41 408.396 638.129 408.635 637.833 408.888C636.384 410.112 634.907 411.322 633.402 412.517C633.219 412.658 633.036 412.799 632.868 412.939C631.447 414.065 629.998 415.162 628.535 416.259C628.282 416.442 628.043 416.639 627.789 416.822C626.284 417.933 624.765 419.016 623.218 420.085C622.88 420.324 622.542 420.549 622.205 420.774C620.615 421.872 618.998 422.955 617.366 424.01C616.226 424.741 615.073 425.473 613.905 426.19C612.667 426.95 611.444 427.695 610.192 428.427C609.784 428.666 609.376 428.905 608.968 429.144C608.138 429.623 607.294 430.115 606.464 430.579C606.155 430.748 605.845 430.917 605.536 431.085C603.876 432.014 602.202 432.914 600.528 433.786C600.373 433.871 600.204 433.955 600.05 434.04C598.291 434.94 596.533 435.812 594.774 436.656C594.437 436.825 594.099 436.979 593.762 437.148C591.905 438.02 590.048 438.864 588.177 439.68C587.854 439.821 587.544 439.948 587.221 440.088C585.322 440.904 583.408 441.692 581.495 442.451C580.961 442.662 580.412 442.873 579.878 443.07C579.231 443.324 578.584 443.563 577.936 443.802C577.36 444.013 576.783 444.224 576.206 444.421C575.559 444.66 574.912 444.885 574.265 445.11C573.688 445.307 573.112 445.504 572.549 445.687C571.902 445.912 571.255 446.123 570.608 446.334C570.031 446.517 569.44 446.7 568.863 446.883C568.23 447.079 567.583 447.29 566.95 447.473C566.514 447.6 566.078 447.727 565.656 447.853C564.629 448.163 563.602 448.458 562.561 448.739C562.097 448.866 561.633 448.993 561.169 449.119C560.1 449.401 559.031 449.682 557.962 449.949C557.596 450.034 557.244 450.132 556.878 450.216C555.472 450.554 554.051 450.878 552.644 451.187C552.349 451.257 552.053 451.314 551.772 451.37C550.647 451.609 549.521 451.834 548.396 452.059C547.96 452.144 547.538 452.214 547.102 452.298C545.85 452.523 544.584 452.748 543.332 452.945C543.037 452.988 542.727 453.044 542.432 453.1C540.927 453.339 539.407 453.55 537.902 453.747C537.536 453.789 537.185 453.832 536.833 453.874C535.609 454.028 534.4 454.155 533.19 454.282C532.81 454.324 532.416 454.366 532.036 454.394C530.545 454.535 529.04 454.661 527.549 454.76C527.324 454.774 527.099 454.788 526.874 454.802C525.58 454.887 524.3 454.943 523.005 454.999C522.597 455.013 522.19 455.027 521.782 455.041C520.403 455.084 519.039 455.112 517.674 455.126C517.547 455.126 517.421 455.126 517.308 455.126C515.831 455.126 514.368 455.112 512.905 455.069C512.512 455.055 512.118 455.041 511.724 455.027C510.542 454.985 509.347 454.943 508.179 454.873C507.869 454.858 507.546 454.844 507.237 454.816C505.802 454.732 504.367 454.619 502.946 454.493C502.623 454.465 502.299 454.422 501.975 454.394C500.822 454.282 499.669 454.155 498.529 454.014C498.149 453.972 497.784 453.93 497.404 453.874C495.997 453.691 494.59 453.494 493.198 453.269C493.029 453.241 492.86 453.213 492.691 453.184C491.454 452.988 490.216 452.762 488.992 452.523C488.612 452.453 488.232 452.383 487.852 452.298C486.629 452.059 485.405 451.792 484.181 451.511C484.026 451.468 483.871 451.44 483.703 451.412C482.352 451.103 481.016 450.765 479.68 450.399C479.328 450.301 478.976 450.202 478.625 450.118C477.555 449.823 476.486 449.513 475.417 449.189C475.122 449.105 474.827 449.007 474.531 448.922C473.237 448.514 471.943 448.092 470.663 447.642C470.381 447.544 470.114 447.445 469.833 447.347C468.792 446.981 467.751 446.587 466.724 446.193C466.386 446.067 466.049 445.94 465.711 445.799C464.459 445.307 463.221 444.787 461.983 444.252C461.871 444.21 461.758 444.154 461.646 444.097C460.521 443.605 459.409 443.084 458.298 442.55C457.96 442.395 457.637 442.226 457.299 442.072C456.258 441.565 455.231 441.031 454.204 440.496C454.036 440.412 453.867 440.327 453.698 440.229C452.531 439.596 451.391 438.949 450.252 438.288C449.956 438.119 449.661 437.936 449.38 437.767C448.465 437.219 447.565 436.656 446.679 436.093C446.411 435.924 446.158 435.756 445.891 435.587C444.794 434.869 443.711 434.138 442.656 433.392C442.445 433.238 442.234 433.083 442.023 432.928C441.15 432.295 440.278 431.648 439.42 431.001C439.139 430.79 438.858 430.565 438.576 430.354C437.549 429.538 436.522 428.722 435.524 427.878C435.467 427.836 435.425 427.794 435.369 427.752C434.412 426.936 433.484 426.106 432.57 425.262C432.302 425.023 432.035 424.769 431.782 424.53C430.966 423.771 430.178 422.997 429.391 422.209C429.236 422.055 429.081 421.9 428.926 421.745C428.012 420.817 427.126 419.86 426.254 418.889C426.029 418.636 425.818 418.397 425.593 418.144C424.889 417.356 424.2 416.554 423.525 415.739C423.314 415.485 423.117 415.246 422.906 414.993C422.076 413.98 421.274 412.939 420.486 411.884C420.332 411.687 420.191 411.476 420.05 411.279C419.389 410.393 418.756 409.479 418.123 408.564C417.912 408.269 417.715 407.96 417.504 407.65C416.759 406.539 416.027 405.413 415.324 404.26C415.886 405.188 416.477 406.117 417.068 407.017L429.503 426.683C430.206 427.836 430.938 428.961 431.683 430.073C431.88 430.382 432.091 430.678 432.302 430.987C432.935 431.901 433.568 432.816 434.23 433.702C434.37 433.899 434.525 434.11 434.666 434.307C435.453 435.362 436.269 436.403 437.085 437.416C437.282 437.669 437.493 437.908 437.704 438.161C438.379 438.977 439.069 439.779 439.772 440.567C439.997 440.82 440.208 441.073 440.433 441.312C441.305 442.283 442.205 443.225 443.106 444.168C443.26 444.322 443.415 444.477 443.57 444.632C444.358 445.42 445.16 446.193 445.961 446.953C446.229 447.206 446.482 447.445 446.749 447.684C447.663 448.528 448.592 449.358 449.548 450.174C449.605 450.216 449.647 450.259 449.703 450.301C450.702 451.145 451.715 451.975 452.756 452.777C453.037 453.002 453.318 453.213 453.6 453.424C454.458 454.085 455.33 454.732 456.202 455.351C456.413 455.506 456.624 455.66 456.835 455.815C457.904 456.575 458.987 457.306 460.07 458.009C460.338 458.178 460.591 458.347 460.858 458.516C461.744 459.093 462.659 459.641 463.559 460.19C463.854 460.359 464.136 460.541 464.431 460.71C465.571 461.371 466.71 462.033 467.877 462.651C468.046 462.736 468.215 462.82 468.384 462.919C469.411 463.467 470.438 463.988 471.479 464.494C471.816 464.663 472.14 464.818 472.477 464.972C473.575 465.507 474.7 466.013 475.825 466.52C475.938 466.562 476.05 466.618 476.163 466.675C477.387 467.209 478.639 467.73 479.891 468.222C480.228 468.349 480.566 468.489 480.903 468.616C481.93 469.01 482.971 469.404 484.012 469.769C484.293 469.868 484.561 469.966 484.842 470.065C486.122 470.515 487.402 470.937 488.71 471.345C489.006 471.443 489.301 471.528 489.597 471.612C490.652 471.936 491.721 472.245 492.804 472.54C493.156 472.639 493.507 472.737 493.859 472.822C495.195 473.173 496.532 473.511 497.882 473.835C498.037 473.877 498.192 473.905 498.36 473.933C499.57 474.214 500.794 474.468 502.032 474.721C502.412 474.791 502.791 474.876 503.171 474.946C504.395 475.185 505.633 475.396 506.871 475.607C507.04 475.635 507.208 475.663 507.377 475.691C508.77 475.916 510.176 476.113 511.583 476.296C511.949 476.338 512.329 476.395 512.708 476.437C513.848 476.578 515.001 476.704 516.155 476.817C516.478 476.845 516.802 476.887 517.126 476.915C518.546 477.042 519.981 477.154 521.416 477.239C521.725 477.253 522.035 477.267 522.358 477.295C523.54 477.365 524.722 477.408 525.903 477.45C526.297 477.464 526.691 477.478 527.085 477.492C528.548 477.52 530.011 477.548 531.488 477.548C531.614 477.548 531.741 477.548 531.853 477.548C533.218 477.534 534.582 477.506 535.961 477.464C536.369 477.45 536.777 477.436 537.185 477.422C538.465 477.365 539.759 477.309 541.053 477.225C541.278 477.211 541.503 477.197 541.728 477.183C543.219 477.084 544.711 476.957 546.216 476.817C546.596 476.775 546.989 476.732 547.369 476.704C548.579 476.578 549.803 476.451 551.013 476.296C551.378 476.254 551.73 476.212 552.082 476.17C553.587 475.973 555.092 475.762 556.611 475.523C556.907 475.48 557.216 475.424 557.511 475.368C558.763 475.171 560.029 474.946 561.281 474.721C561.52 474.679 561.76 474.636 561.985 474.594C562.182 474.552 562.379 474.51 562.575 474.482C563.701 474.271 564.826 474.032 565.952 473.792C566.247 473.736 566.542 473.68 566.824 473.61C568.23 473.3 569.637 472.977 571.058 472.639C571.424 472.555 571.789 472.456 572.141 472.372C573.21 472.104 574.279 471.837 575.348 471.542C575.812 471.415 576.277 471.288 576.741 471.162C577.768 470.881 578.795 470.585 579.835 470.276C580.117 470.191 580.412 470.121 580.694 470.022C580.834 469.98 580.989 469.938 581.13 469.882C581.763 469.685 582.41 469.488 583.043 469.291C583.619 469.108 584.21 468.925 584.787 468.742C585.434 468.531 586.081 468.306 586.728 468.095C587.305 467.898 587.882 467.716 588.458 467.519C589.106 467.294 589.753 467.068 590.386 466.829C590.962 466.618 591.539 466.421 592.116 466.21C592.763 465.971 593.396 465.718 594.043 465.479C594.521 465.296 595 465.113 595.478 464.93C595.548 464.902 595.604 464.874 595.675 464.846C597.588 464.1 599.487 463.313 601.4 462.497C601.724 462.356 602.033 462.229 602.357 462.089C604.227 461.273 606.084 460.429 607.941 459.557C608.096 459.486 608.251 459.416 608.391 459.346C608.574 459.261 608.771 459.149 608.954 459.064C610.712 458.22 612.471 457.348 614.229 456.448C614.398 456.364 614.552 456.279 614.721 456.195C616.395 455.323 618.069 454.422 619.729 453.508C619.912 453.41 620.095 453.311 620.292 453.213C620.418 453.142 620.545 453.072 620.672 453.002C621.501 452.537 622.345 452.045 623.175 451.567C623.583 451.328 624.005 451.089 624.413 450.849C625.651 450.118 626.889 449.372 628.127 448.613C629.295 447.895 630.434 447.164 631.573 446.432C633.205 445.377 634.823 444.294 636.412 443.197C636.75 442.972 637.088 442.733 637.425 442.508C638.973 441.439 640.492 440.341 641.997 439.244C642.081 439.188 642.166 439.118 642.25 439.061C642.419 438.935 642.574 438.808 642.742 438.682C644.205 437.584 645.654 436.487 647.089 435.362C647.272 435.221 647.441 435.08 647.624 434.954C649.129 433.758 650.592 432.548 652.055 431.325C652.209 431.198 652.378 431.071 652.533 430.945C652.674 430.832 652.8 430.706 652.941 430.593C654.46 429.299 655.965 427.991 657.428 426.668C657.667 426.457 657.892 426.232 658.132 426.021C659.651 424.629 661.156 423.236 662.619 421.815C662.633 421.801 662.647 421.787 662.661 421.773C662.689 421.745 662.731 421.703 662.76 421.675C664.504 419.973 666.22 418.242 667.894 416.484C667.908 416.47 667.922 416.456 667.936 416.442C669.596 414.698 671.214 412.925 672.789 411.139C672.831 411.096 672.874 411.04 672.916 410.998C672.944 410.97 672.958 410.942 672.986 410.928C673.886 409.901 674.773 408.86 675.645 407.833C675.884 407.538 676.123 407.256 676.362 406.961C676.995 406.201 677.614 405.442 678.219 404.682C678.528 404.288 678.838 403.908 679.147 403.514C679.682 402.839 680.217 402.164 680.737 401.489C681.061 401.067 681.37 400.645 681.694 400.223C682.2 399.562 682.692 398.886 683.185 398.225C683.367 397.972 683.55 397.733 683.733 397.48C683.818 397.353 683.902 397.227 683.986 397.114C685.07 395.609 686.125 394.09 687.166 392.556C687.348 392.289 687.531 392.008 687.714 391.74C688.755 390.165 689.782 388.59 690.767 387C690.865 386.845 690.95 386.705 691.034 386.55C692.005 384.974 692.933 383.399 693.847 381.809C693.932 381.655 694.03 381.486 694.129 381.331C695.043 379.727 695.915 378.11 696.759 376.492C696.843 376.323 696.942 376.169 697.026 376.014C697.083 375.887 697.139 375.775 697.209 375.648C698.025 374.058 698.813 372.469 699.572 370.865C699.713 370.57 699.84 370.289 699.98 369.993C700.74 368.361 701.486 366.716 702.175 365.084C702.259 364.901 702.33 364.718 702.4 364.535C703.089 362.889 703.75 361.244 704.383 359.598C704.426 359.471 704.482 359.345 704.538 359.204C705.171 357.53 705.762 355.856 706.325 354.182C706.423 353.901 706.521 353.619 706.606 353.338C707.14 351.706 707.647 350.075 708.111 348.443C708.195 348.147 708.28 347.838 708.364 347.542C708.828 345.883 709.265 344.223 709.672 342.577C709.729 342.366 709.771 342.155 709.813 341.944C710.207 340.256 710.587 338.568 710.91 336.894C710.924 336.809 710.938 336.725 710.967 336.655C711.29 334.953 711.586 333.251 711.839 331.548C711.867 331.38 711.895 331.225 711.923 331.056C711.937 330.958 711.951 330.859 711.965 330.747C712.205 329.129 712.401 327.497 712.57 325.88C712.514 325.486 712.542 325.19 712.57 324.881Z" fill="url(#paint5_linear)"/>
<circle cx="139" cy="51" r="2.5" stroke="#A8B0C1" stroke-opacity="0.3" stroke-width="3"/>
<path d="M144.5 51H219L360.5 192.5" stroke="#A8B0C1" stroke-opacity="0.3" stroke-width="3" stroke-dasharray="3 3"/>
<circle r="2.5" transform="matrix(1 0 0 -1 139 575.5)" stroke="#A8B0C1" stroke-opacity="0.3" stroke-width="3"/>
<path d="M144.5 575.5H219L360.5 434" stroke="#A8B0C1" stroke-opacity="0.3" stroke-width="3" stroke-dasharray="3 3"/>
<circle r="2.5" transform="matrix(-1 0 0 1 977.5 51)" stroke="#A8B0C1" stroke-opacity="0.3" stroke-width="3"/>
<path d="M972 51H897.5L756 192.5" stroke="#A8B0C1" stroke-opacity="0.3" stroke-width="3" stroke-dasharray="3 3"/>
<circle cx="977.5" cy="575.5" r="2.5" transform="rotate(-180 977.5 575.5)" stroke="#A8B0C1" stroke-opacity="0.3" stroke-width="3"/>
<path d="M972 575.5H897.5L756 434" stroke="#A8B0C1" stroke-opacity="0.3" stroke-width="3" stroke-dasharray="3 3"/>
<circle cx="753" cy="320" r="3.5" stroke="#A8B0C1" stroke-opacity="0.3"/>
<path d="M760 320H972" stroke="#A8B0C1" stroke-opacity="0.3" stroke-width="3" stroke-dasharray="3 3"/>
<defs>
<linearGradient id="paint0_linear" x1="1021.62" y1="280.625" x2="1098.83" y2="362.375" gradientUnits="userSpaceOnUse">
<stop stop-color="#1442A2"/>
<stop offset="1" stop-color="#4674D4"/>
</linearGradient>
<linearGradient id="paint1_linear" x1="1021.62" y1="535.625" x2="1098.83" y2="617.375" gradientUnits="userSpaceOnUse">
<stop stop-color="#1442A2"/>
<stop offset="1" stop-color="#4674D4"/>
</linearGradient>
<linearGradient id="paint2_linear" x1="4.54175" y1="517.746" x2="114.435" y2="528.866" gradientUnits="userSpaceOnUse">
<stop stop-color="#41A558"/>
<stop offset="1" stop-color="#44A69B"/>
</linearGradient>
<linearGradient id="paint3_linear" x1="1021.62" y1="13.6248" x2="1098.83" y2="95.3748" gradientUnits="userSpaceOnUse">
<stop stop-color="#1442A2"/>
<stop offset="1" stop-color="#4674D4"/>
</linearGradient>
<linearGradient id="paint4_linear" x1="437.84" y1="248.532" x2="680.97" y2="405.856" gradientUnits="userSpaceOnUse">
<stop stop-color="#07A94E"/>
<stop offset="1" stop-color="#1EA99B"/>
</linearGradient>
<linearGradient id="paint5_linear" x1="487.347" y1="292.969" x2="673.555" y2="413.461" gradientUnits="userSpaceOnUse">
<stop stop-color="#1EA99B"/>
<stop offset="1" stop-color="#07A94E" stop-opacity="0"/>
</linearGradient>
<clipPath id="clip0">
<rect width="100" height="100" fill="white" transform="translate(0 5)"/>
</clipPath>
</defs>
</svg>
