<svg width="321" height="336" viewBox="0 0 321 336" fill="none" xmlns="http://www.w3.org/2000/svg">
<path d="M319.889 252.508C319.866 252.619 319.866 252.731 319.844 252.842C319.755 253.355 319.644 253.846 319.51 254.359C319.488 254.47 319.443 254.56 319.398 254.671C319.265 255.05 319.131 255.452 318.953 255.831C318.886 255.987 318.797 256.165 318.73 256.321C318.574 256.678 318.374 257.013 318.173 257.369C318.084 257.526 318.017 257.659 317.928 257.815C317.639 258.284 317.327 258.73 316.992 259.198C316.97 259.22 316.97 259.243 316.948 259.265C316.591 259.733 316.19 260.224 315.767 260.692C315.634 260.826 315.5 260.96 315.388 261.116C315.143 261.383 314.876 261.651 314.609 261.919C313.918 262.61 313.183 263.279 312.336 263.97C312.314 263.993 312.292 263.993 312.292 264.015C311.468 264.684 310.554 265.353 309.618 266C309.262 266.245 308.928 266.49 308.549 266.736C308.326 266.869 308.126 267.025 307.903 267.159C307.302 267.538 306.678 267.917 306.009 268.319C305.898 268.386 305.809 268.453 305.698 268.497C304.94 268.943 304.138 269.389 303.314 269.813C303.069 269.947 302.824 270.058 302.601 270.192C301.999 270.504 301.376 270.816 300.752 271.129C300.418 271.285 300.084 271.441 299.749 271.619C299.148 271.909 298.546 272.177 297.923 272.467C297.588 272.623 297.232 272.779 296.876 272.935C296.229 273.203 295.583 273.493 294.915 273.76C294.536 273.916 294.158 274.072 293.757 274.228C292.977 274.541 292.153 274.853 291.351 275.165C291.061 275.277 290.794 275.388 290.504 275.5C289.836 275.745 289.145 275.99 288.477 276.213C287.942 276.392 287.43 276.592 286.895 276.771C286.16 277.016 285.402 277.261 284.645 277.507C284.133 277.685 283.62 277.841 283.086 278.019C282.885 278.086 282.685 278.131 282.484 278.198C281.259 278.577 280.011 278.956 278.741 279.335C278.229 279.491 277.694 279.625 277.182 279.781C276.179 280.071 275.199 280.339 274.174 280.606C273.662 280.74 273.15 280.874 272.637 281.008C271.122 281.387 269.607 281.788 268.026 282.167C267.58 282.279 267.135 282.39 266.689 282.48C264.751 282.926 262.746 283.372 260.718 283.818C259.894 283.996 259.07 284.152 258.223 284.33C257.466 284.487 256.708 284.643 255.929 284.799C255.038 284.977 254.124 285.133 253.211 285.312C252.431 285.468 251.674 285.602 250.872 285.758C249.958 285.914 249.023 286.07 248.087 286.248C247.285 286.382 246.483 286.538 245.659 286.672C244.701 286.828 243.743 286.984 242.762 287.14C241.938 287.274 241.114 287.408 240.29 287.519C239.822 287.586 239.332 287.653 238.842 287.72C237.215 287.965 235.589 288.188 233.918 288.411C233.183 288.501 232.448 288.612 231.713 288.701C230.265 288.88 228.794 289.08 227.324 289.259C226.544 289.348 225.742 289.437 224.94 289.549C223.403 289.727 221.844 289.905 220.262 290.062C219.549 290.128 218.836 290.218 218.123 290.285C215.828 290.508 213.534 290.731 211.172 290.954C208.276 291.199 205.38 291.422 202.462 291.645C201.927 291.69 201.392 291.712 200.858 291.756C196.202 292.069 191.546 292.336 186.889 292.559C186.266 292.582 185.642 292.604 185.04 292.626C182.59 292.738 180.117 292.805 177.666 292.894C176.597 292.916 175.505 292.961 174.436 292.983C172.632 293.028 170.849 293.05 169.045 293.072C167.909 293.094 166.772 293.094 165.636 293.117C163.965 293.139 162.295 293.139 160.646 293.139C159.51 293.139 158.374 293.139 157.26 293.139C155.611 293.139 153.94 293.117 152.292 293.094C151.2 293.072 150.131 293.072 149.039 293.05C147.123 293.005 145.207 292.961 143.292 292.916C142.467 292.894 141.643 292.871 140.841 292.849C138.101 292.76 135.361 292.648 132.643 292.515C132.197 292.492 131.774 292.47 131.328 292.448C129.034 292.336 126.739 292.202 124.467 292.069C123.576 292.024 122.662 291.957 121.771 291.89C119.944 291.779 118.118 291.645 116.291 291.511C115.266 291.444 114.263 291.355 113.261 291.266C111.546 291.132 109.83 290.976 108.137 290.82C107.112 290.731 106.11 290.641 105.107 290.53C103.325 290.352 101.565 290.173 99.8051 289.995C98.914 289.905 98.0006 289.794 97.1094 289.705C94.7257 289.437 92.3642 289.147 90.0473 288.857C89.78 288.813 89.4904 288.79 89.2008 288.746C86.5052 288.389 83.8764 288.01 81.2476 287.631C80.5347 287.519 79.8218 287.408 79.1089 287.296C77.0148 286.962 74.9429 286.627 72.8933 286.293C72.1582 286.159 71.423 286.048 70.7101 285.914C67.9031 285.423 65.1629 284.91 62.4896 284.353C60.6405 283.974 58.8137 283.595 57.0092 283.193C56.8978 283.171 56.7864 283.149 56.675 283.126C54.9819 282.747 53.2888 282.346 51.6625 281.967C50.504 281.677 49.3901 281.387 48.254 281.097C47.4742 280.896 46.6945 280.718 45.9371 280.495C44.7341 280.183 43.5756 279.848 42.4172 279.514C41.7711 279.335 41.125 279.157 40.5013 278.978C39.5656 278.711 38.6745 278.421 37.7611 278.131C36.9813 277.886 36.2016 277.663 35.4442 277.417C34.5531 277.127 33.6842 276.815 32.8154 276.525C32.1025 276.28 31.345 276.035 30.6544 275.789C29.8079 275.477 29.0281 275.165 28.2038 274.853C27.5132 274.585 26.8226 274.34 26.1543 274.072C25.3523 273.738 24.5948 273.403 23.8151 273.069C23.2136 272.801 22.5675 272.556 21.966 272.288C21.1863 271.931 20.4511 271.575 19.716 271.218C19.1813 270.95 18.6243 270.705 18.0897 270.437C17.3322 270.058 16.6416 269.657 15.9287 269.278C15.4609 269.032 14.9708 268.787 14.5475 268.52C13.8346 268.096 13.1663 267.672 12.4979 267.248C12.1192 267.003 14.3247 265.621 13.946 265.375C12.9435 264.706 11.941 264.461 11.0498 263.77C5.32442 259.31 0.0222779 255.496 0.0445558 251.036L0 293.83C0 298.29 2.71791 302.817 8.44333 307.277C9.33445 307.969 10.2701 308.638 11.2949 309.307C11.6514 309.552 12.0746 309.775 12.4534 310.02C13.1217 310.444 13.79 310.868 14.5029 311.291C14.9485 311.537 15.4386 311.782 15.8842 312.05C16.597 312.429 17.2877 312.83 18.0451 313.209C18.5575 313.477 19.1367 313.722 19.6714 313.99C20.4066 314.347 21.1417 314.703 21.9215 315.06C22.523 315.328 23.1468 315.573 23.7705 315.841C24.5503 316.175 25.3077 316.51 26.1097 316.844C26.7558 317.112 27.4687 317.357 28.137 317.625C28.9613 317.937 29.7633 318.249 30.6099 318.561C31.3005 318.807 32.0356 319.052 32.7485 319.297C33.6174 319.609 34.4862 319.899 35.3773 320.212C36.1348 320.457 36.9145 320.702 37.6942 320.925C38.6076 321.215 39.4987 321.505 40.4344 321.773C40.479 321.795 40.5235 321.795 40.5904 321.817C41.1696 321.996 41.7711 322.152 42.3726 322.308C43.5311 322.642 44.6895 322.977 45.8925 323.289C46.65 323.49 47.4297 323.69 48.2094 323.891C49.3456 324.181 50.4595 324.471 51.6179 324.761C51.7516 324.805 51.8853 324.828 52.0412 324.872C53.5561 325.229 55.0933 325.586 56.6527 325.943C56.7641 325.965 56.8755 325.987 56.9869 326.01C58.68 326.389 60.3954 326.746 62.1331 327.102C62.2445 327.125 62.3559 327.147 62.4673 327.169C65.1406 327.704 67.9031 328.217 70.6878 328.73C70.9552 328.775 71.2225 328.842 71.4898 328.886C71.9354 328.976 72.4032 329.042 72.8711 329.109C74.9206 329.466 76.9925 329.801 79.0866 330.113C79.5544 330.18 80 330.269 80.4901 330.336C80.7352 330.38 80.9802 330.403 81.2253 330.447C83.8318 330.849 86.4829 331.206 89.1785 331.562C89.2008 331.562 89.2453 331.562 89.2676 331.585C89.5127 331.607 89.78 331.652 90.0251 331.674C92.342 331.964 94.7034 332.254 97.0872 332.521C97.3545 332.544 97.6218 332.588 97.8892 332.611C98.5129 332.677 99.159 332.744 99.7828 332.811C101.543 332.99 103.303 333.19 105.085 333.346C105.553 333.391 106.021 333.458 106.511 333.503C107.045 333.547 107.602 333.592 108.137 333.636C109.83 333.792 111.523 333.926 113.239 334.082C113.885 334.127 114.508 334.194 115.155 334.238C115.533 334.261 115.934 334.283 116.313 334.328C118.118 334.461 119.922 334.595 121.749 334.707C122.462 334.751 123.152 334.818 123.865 334.863C124.066 334.885 124.289 334.885 124.489 334.907C126.761 335.041 129.034 335.175 131.328 335.287C131.729 335.309 132.13 335.331 132.531 335.353C132.576 335.353 132.62 335.353 132.665 335.353C135.383 335.487 138.123 335.599 140.863 335.688C140.975 335.688 141.086 335.688 141.197 335.71C141.91 335.733 142.646 335.755 143.381 335.755C145.274 335.799 147.168 335.866 149.084 335.889C149.329 335.889 149.596 335.911 149.841 335.911C150.666 335.933 151.512 335.933 152.336 335.933C153.985 335.956 155.634 335.978 157.282 335.978C157.661 335.978 158.04 335.978 158.418 336C159.176 336 159.933 336 160.691 336C162.339 336 164.01 336 165.659 335.978C166.171 335.978 166.661 335.978 167.173 335.978C167.797 335.978 168.421 335.956 169.045 335.933C170.849 335.911 172.632 335.866 174.436 335.844C175.082 335.822 175.728 335.822 176.397 335.799C176.82 335.777 177.243 335.777 177.666 335.755C180.117 335.688 182.59 335.599 185.04 335.487C185.553 335.465 186.087 335.465 186.6 335.443C186.689 335.443 186.8 335.42 186.889 335.42C191.546 335.22 196.202 334.952 200.835 334.618C201.147 334.595 201.481 334.595 201.793 334.573C202.016 334.551 202.239 334.528 202.462 334.528C205.358 334.328 208.276 334.105 211.15 333.837C213.489 333.636 215.806 333.413 218.101 333.168C218.836 333.101 219.549 333.012 220.262 332.945C221.821 332.789 223.381 332.611 224.918 332.432C225.72 332.343 226.522 332.254 227.324 332.142C228.794 331.964 230.242 331.785 231.668 331.607C232.426 331.518 233.183 331.406 233.918 331.317C235.567 331.094 237.171 330.871 238.775 330.626C239.176 330.559 239.599 330.514 240 330.447C240.089 330.425 240.201 330.425 240.29 330.403C241.114 330.269 241.894 330.157 242.718 330.024C243.698 329.868 244.678 329.711 245.659 329.555C246.483 329.422 247.263 329.288 248.065 329.132C249 328.976 249.936 328.819 250.872 328.641C251.651 328.507 252.431 328.351 253.189 328.217C254.102 328.039 255.015 327.883 255.906 327.704C256.686 327.548 257.421 327.392 258.179 327.236C258.892 327.102 259.627 326.946 260.317 326.812C260.429 326.79 260.54 326.768 260.674 326.723C262.723 326.3 264.706 325.854 266.644 325.385C267.09 325.274 267.536 325.162 267.981 325.073C269.541 324.694 271.078 324.315 272.593 323.913C272.882 323.846 273.216 323.757 273.506 323.69C273.729 323.623 273.929 323.579 274.13 323.512C275.155 323.244 276.135 322.954 277.137 322.687C277.672 322.531 278.207 322.397 278.719 322.241C279.989 321.884 281.214 321.505 282.417 321.126C282.618 321.059 282.818 321.014 283.019 320.947C283.041 320.947 283.063 320.925 283.086 320.925C283.598 320.769 284.066 320.591 284.578 320.435C285.358 320.189 286.138 319.922 286.895 319.676C287.452 319.498 287.964 319.297 288.499 319.119C289.145 318.896 289.791 318.673 290.415 318.45C290.46 318.428 290.482 318.428 290.526 318.405C290.816 318.294 291.083 318.182 291.373 318.071C292.197 317.759 292.999 317.446 293.779 317.134C294.158 316.978 294.536 316.822 294.915 316.666C295.405 316.465 295.895 316.264 296.385 316.064C296.564 315.997 296.72 315.908 296.898 315.841C297.254 315.685 297.588 315.528 297.923 315.395C298.546 315.105 299.17 314.837 299.772 314.547C300.106 314.391 300.44 314.235 300.774 314.057C300.975 313.967 301.197 313.856 301.398 313.767C301.821 313.566 302.222 313.343 302.623 313.142C302.868 313.009 303.113 312.897 303.336 312.763C304.138 312.34 304.918 311.916 305.653 311.492C305.675 311.47 305.698 311.47 305.72 311.448C305.831 311.381 305.92 311.314 306.032 311.247C306.678 310.868 307.302 310.489 307.903 310.11C308.126 309.976 308.349 309.82 308.549 309.686C308.794 309.53 309.039 309.374 309.262 309.218C309.396 309.128 309.485 309.039 309.596 308.972C310.554 308.326 311.445 307.657 312.27 306.987C312.292 306.987 312.292 306.965 312.314 306.965C313.138 306.296 313.874 305.605 314.586 304.914C314.676 304.824 314.787 304.735 314.876 304.668C315.054 304.49 315.21 304.311 315.388 304.133C315.522 303.999 315.656 303.865 315.767 303.709C316.19 303.241 316.591 302.773 316.948 302.304C316.948 302.304 316.948 302.304 316.948 302.282C316.97 302.26 316.97 302.238 316.992 302.215C317.327 301.769 317.639 301.301 317.928 300.833C318.017 300.677 318.106 300.543 318.195 300.387C318.307 300.208 318.418 300.03 318.507 299.829C318.596 299.673 318.663 299.495 318.73 299.339C318.797 299.182 318.886 299.004 318.953 298.848C319.109 298.469 319.265 298.067 319.398 297.688C319.443 297.577 319.488 297.465 319.51 297.376C319.51 297.354 319.532 297.331 319.532 297.287C319.666 296.819 319.777 296.328 319.844 295.86C319.866 295.748 319.866 295.637 319.889 295.503C319.933 295.191 319.978 294.856 319.978 294.544C319.978 294.41 319.978 294.299 319.978 294.165L320.022 251.125C320 251.616 319.955 252.062 319.889 252.508Z" fill="url(#paint0_linear)"/>
<path d="M211.172 290.797C127.497 298.134 36.7586 286.248 8.48797 264.26C-19.7604 242.25 25.1741 218.5 108.85 211.163C192.548 203.826 283.286 215.712 311.557 237.7C339.805 259.688 294.871 283.46 211.172 290.797Z" fill="url(#paint1_radial)"/>
<path d="M68.4062 111.627L62.6406 117.713C64.9362 119.955 67.5387 121.81 70.4482 123.278C73.3311 124.693 76.3607 125.427 79.5371 125.48V134.329H83.7412V125.48C88.3324 124.786 91.9626 122.878 94.6318 119.755C97.3011 116.739 98.6624 112.935 98.7158 108.344C98.8493 99.5085 93.8577 93.8763 83.7412 91.4473V73.9902C87.1312 74.2572 90.1608 75.5384 92.8301 77.834L97.5947 71.6279C93.484 68.0244 88.8662 66.196 83.7412 66.1426V60.377H79.5371V66.1426C70.1947 67.5039 65.4434 73.096 65.2832 82.9189C65.0697 91.4072 69.821 96.8792 79.5371 99.335V117.633C77.028 117.339 74.9059 116.645 73.1709 115.551C71.3558 114.536 69.7676 113.229 68.4062 111.627ZM79.5371 90.4863C77.3483 89.7656 75.8268 88.7513 74.9727 87.4434C74.0918 86.1888 73.6514 84.6273 73.6514 82.7588C73.6514 81.2907 73.8382 80.0361 74.2119 78.9951C74.5322 77.9541 74.946 77.0866 75.4531 76.3926C76.6009 75.0046 77.9622 74.2038 79.5371 73.9902V90.4863ZM83.7412 100.336C86.3571 100.87 88.1322 101.844 89.0664 103.259C89.9473 104.7 90.3877 106.368 90.3877 108.264C90.3877 110.613 89.9206 112.588 88.9863 114.189C87.9987 115.818 86.2503 116.965 83.7412 117.633V100.336ZM136.993 75.4717V125H145.361V66.623H136.993L128.705 72.6689V81.5576L136.993 75.4717ZM166.142 125H174.51V116.632H166.142V125ZM208.062 108.184C207.902 114.083 205.166 117.059 199.854 117.112C194.516 117.059 191.793 114.083 191.687 108.184V83.4395C191.793 77.5938 194.516 74.6175 199.854 74.5107C205.166 74.6175 207.902 77.5938 208.062 83.4395V108.184ZM183.318 108.664C183.372 114.029 185.093 118.167 188.483 121.076C191.66 123.959 195.45 125.427 199.854 125.48C204.392 125.427 208.249 123.959 211.426 121.076C214.656 118.167 216.324 114.029 216.431 108.664V82.9189C216.324 77.527 214.656 73.3763 211.426 70.4668C208.249 67.584 204.392 66.1426 199.854 66.1426C195.45 66.1426 191.66 67.584 188.483 70.4668C185.093 73.3763 183.372 77.527 183.318 82.9189V108.664ZM235.489 75.4717V125H243.857V66.623H235.489L227.201 72.6689V81.5576L235.489 75.4717Z" fill="url(#paint2_linear)"/>
<path d="M106.94 153.72V162.52C106.94 164.38 107.42 165.8 108.38 166.8C109.34 167.78 110.76 168.28 112.64 168.28C114.52 168.28 115.94 167.78 116.92 166.78C117.86 165.8 118.34 164.38 118.34 162.52V153.72H116.7V162.54C116.7 163.94 116.38 165 115.76 165.72C115.08 166.46 114.04 166.84 112.64 166.84C111.22 166.84 110.18 166.46 109.52 165.72C108.88 165 108.58 163.94 108.58 162.54V153.72H106.94ZM126.017 153.44C124.537 153.44 123.317 153.76 122.377 154.4C121.317 155.08 120.797 156.06 120.797 157.3C120.797 158.5 121.337 159.42 122.437 160.06C122.897 160.3 123.997 160.7 125.717 161.22C127.317 161.68 128.337 162.02 128.737 162.26C129.677 162.76 130.157 163.46 130.157 164.36C130.157 165.12 129.797 165.72 129.077 166.16C128.357 166.6 127.397 166.82 126.237 166.82C124.957 166.82 123.997 166.54 123.337 166.02C122.617 165.44 122.177 164.52 122.037 163.28H120.417C120.537 165.04 121.157 166.34 122.277 167.2C123.237 167.92 124.557 168.28 126.237 168.28C127.937 168.28 129.277 167.92 130.277 167.22C131.277 166.5 131.777 165.5 131.777 164.26C131.777 162.96 131.177 161.96 129.997 161.24C129.397 160.88 128.157 160.42 126.277 159.86C124.897 159.46 124.017 159.16 123.657 158.96C122.837 158.52 122.437 157.94 122.437 157.22C122.437 156.4 122.777 155.8 123.457 155.4C124.057 155.04 124.877 154.88 125.937 154.88C127.097 154.88 127.997 155.12 128.637 155.64C129.257 156.14 129.657 156.9 129.837 157.94H131.457C131.317 156.44 130.777 155.3 129.817 154.54C128.897 153.8 127.617 153.44 126.017 153.44ZM133.854 153.72V168H138.814C141.054 168 142.774 167.34 143.974 166.04C145.114 164.8 145.694 163.06 145.694 160.86C145.694 158.62 145.154 156.88 144.094 155.68C142.934 154.36 141.234 153.72 138.974 153.72H133.854ZM135.494 155.14H138.714C140.594 155.14 141.954 155.62 142.834 156.6C143.654 157.52 144.074 158.94 144.074 160.86C144.074 162.72 143.614 164.14 142.734 165.1C141.794 166.08 140.394 166.58 138.534 166.58H135.494V155.14ZM147.975 153.72V168H149.615V156.26H149.675L157.795 168H159.475V153.72H157.835V165.34H157.775L149.695 153.72H147.975ZM169.01 153.72V168H170.65V162.16H174.83C178.11 162.16 179.77 160.74 179.77 157.92C179.77 155.12 178.13 153.72 174.85 153.72H169.01ZM170.65 155.14H174.75C175.89 155.14 176.73 155.36 177.29 155.84C177.85 156.26 178.13 156.96 178.13 157.92C178.13 158.88 177.85 159.58 177.31 160.04C176.75 160.5 175.91 160.74 174.75 160.74H170.65V155.14ZM186.182 157.38C185.462 157.38 184.842 157.6 184.302 158.04C183.862 158.38 183.502 158.86 183.222 159.46V157.66H181.642V168H183.222V162.52C183.222 161.56 183.482 160.74 184.042 160.06C184.582 159.34 185.262 159 186.062 159C186.562 159 187.082 159.06 187.602 159.22V157.62C187.222 157.46 186.742 157.38 186.182 157.38ZM190.267 153.76C189.927 153.76 189.647 153.86 189.407 154.1C189.167 154.3 189.067 154.58 189.067 154.94C189.067 155.28 189.167 155.56 189.407 155.8C189.647 156.02 189.927 156.14 190.267 156.14C190.607 156.14 190.887 156.02 191.127 155.8C191.367 155.56 191.487 155.28 191.487 154.94C191.487 154.58 191.367 154.3 191.127 154.1C190.887 153.86 190.607 153.76 190.267 153.76ZM189.467 157.66V168H191.067V157.66H189.467ZM198.524 157.38C196.984 157.38 195.764 157.92 194.884 159.02C194.064 160.02 193.664 161.3 193.664 162.88C193.664 164.46 194.064 165.74 194.884 166.72C195.744 167.76 196.944 168.28 198.504 168.28C199.784 168.28 200.804 167.94 201.584 167.28C202.384 166.6 202.884 165.58 203.124 164.26H201.524C201.284 166.04 200.264 166.94 198.504 166.94C197.464 166.94 196.664 166.56 196.124 165.84C195.564 165.12 195.304 164.12 195.304 162.86C195.304 161.6 195.584 160.6 196.144 159.86C196.724 159.1 197.524 158.72 198.524 158.72C199.344 158.72 200.004 158.9 200.524 159.3C201.024 159.7 201.344 160.3 201.484 161.1H203.064C202.884 159.84 202.404 158.9 201.604 158.28C200.824 157.68 199.804 157.38 198.524 157.38ZM209.262 157.38C207.762 157.38 206.582 157.92 205.702 159C204.822 160.02 204.402 161.3 204.402 162.82C204.402 164.5 204.842 165.82 205.762 166.82C206.642 167.78 207.842 168.28 209.322 168.28C210.662 168.28 211.762 167.88 212.622 167.12C213.322 166.48 213.782 165.68 214.022 164.68H212.422C212.162 165.4 211.822 165.94 211.382 166.3C210.862 166.72 210.162 166.94 209.322 166.94C208.342 166.94 207.562 166.62 207.002 165.98C206.442 165.34 206.142 164.44 206.062 163.28H214.222C214.182 161.48 213.782 160.06 213.022 159.06C212.182 157.94 210.922 157.38 209.262 157.38ZM209.302 158.72C211.262 158.72 212.362 159.82 212.562 162.04H206.102C206.202 161.02 206.522 160.22 207.082 159.62C207.642 159.02 208.382 158.72 209.302 158.72Z" fill="#A8B0C1"/>
<path opacity="0.9" d="M297 111V188" stroke="url(#paint3_linear)" stroke-width="6"/>
<path opacity="0.8" d="M24 92L24 156" stroke="url(#paint4_linear)" stroke-width="6"/>
<path opacity="0.3" d="M112 13V63" stroke="url(#paint5_linear)" stroke-width="6"/>
<path opacity="0.1" d="M275 33V63" stroke="url(#paint6_linear)" stroke-width="6"/>
<path opacity="0.1" d="M201 0L201 43" stroke="url(#paint7_linear)" stroke-width="6"/>
<path opacity="0.1" d="M49 33V63" stroke="url(#paint8_linear)" stroke-width="6"/>
<defs>
<linearGradient id="paint0_linear" x1="159.998" y1="425.432" x2="159.998" y2="105.115" gradientUnits="userSpaceOnUse">
<stop offset="0.2468" stop-color="#07A94E" stop-opacity="0"/>
<stop offset="0.3322" stop-color="#09A956" stop-opacity="0.1987"/>
<stop offset="0.4614" stop-color="#0FA96A" stop-opacity="0.4993"/>
<stop offset="0.6175" stop-color="#1AA98C" stop-opacity="0.8627"/>
<stop offset="0.6765" stop-color="#1EA99B"/>
</linearGradient>
<radialGradient id="paint1_radial" cx="0" cy="0" r="1" gradientUnits="userSpaceOnUse" gradientTransform="translate(160.022 250.978) scale(176.489 97.2545)">
<stop stop-color="#07A94E"/>
<stop offset="0.1987" stop-color="#09A956"/>
<stop offset="0.4993" stop-color="#0FA96A"/>
<stop offset="0.8627" stop-color="#1AA98C"/>
<stop offset="1" stop-color="#1EA99B"/>
</radialGradient>
<linearGradient id="paint2_linear" x1="62" y1="38.6863" x2="271.657" y2="82.6801" gradientUnits="userSpaceOnUse">
<stop stop-color="#41A558"/>
<stop offset="1" stop-color="#44A69B"/>
</linearGradient>
<linearGradient id="paint3_linear" x1="297" y1="111" x2="297" y2="188" gradientUnits="userSpaceOnUse">
<stop stop-color="#44A69B"/>
<stop offset="0.902174" stop-color="#41A558" stop-opacity="0"/>
</linearGradient>
<linearGradient id="paint4_linear" x1="24" y1="92" x2="24" y2="156" gradientUnits="userSpaceOnUse">
<stop stop-color="#44A69B"/>
<stop offset="0.902174" stop-color="#41A558" stop-opacity="0"/>
</linearGradient>
<linearGradient id="paint5_linear" x1="112" y1="13" x2="112" y2="63" gradientUnits="userSpaceOnUse">
<stop stop-color="#44A69B"/>
<stop offset="0.902174" stop-color="#41A558" stop-opacity="0"/>
</linearGradient>
<linearGradient id="paint6_linear" x1="275" y1="33" x2="275" y2="63" gradientUnits="userSpaceOnUse">
<stop stop-color="#44A69B"/>
<stop offset="0.902174" stop-color="#41A558" stop-opacity="0"/>
</linearGradient>
<linearGradient id="paint7_linear" x1="201" y1="0" x2="201" y2="43" gradientUnits="userSpaceOnUse">
<stop stop-color="#44A69B"/>
<stop offset="0.902174" stop-color="#41A558" stop-opacity="0"/>
</linearGradient>
<linearGradient id="paint8_linear" x1="49" y1="33" x2="49" y2="63" gradientUnits="userSpaceOnUse">
<stop stop-color="#44A69B"/>
<stop offset="0.902174" stop-color="#41A558" stop-opacity="0"/>
</linearGradient>
</defs>
</svg>
